<svg width="34" height="31" viewBox="0 0 34 31" fill="none" xmlns="http://www.w3.org/2000/svg">
<line y1="-1" x2="1.79407" y2="-1" transform="matrix(0.891827 0.452376 -0.442081 0.896975 31.4 2)" stroke="black" stroke-width="2"/>
<path d="M30.6 2.4058L2.2 11.7391C2.2 11.7391 1 12.2842 1 12.9565C1 13.6289 2.2 14.1739 2.2 14.1739L7.4 16.6087C7.4 16.6087 9.8 17.8261 10.2 17.8261C10.6 17.8261 13 16.2029 13 16.2029L23.8 8.89855C23.8 8.89855 25.4 8.08696 25.4 8.49275C25.4 8.89855 24.6 9.71015 24.6 9.71015L20.2 13.7681L15.8 17.8261C15.8 17.8261 13.4 19.8551 13.8 20.2609C14.2 20.6667 15.8 21.8841 15.8 21.8841L23.4 27.971C23.4 27.971 25.8 30 26.2 30C26.6 30 27 28.7826 27 28.7826L32.6 4.02899C32.6 4.02899 33.2197 2 32.6 2C31.9803 2 31.381 2.24732 30.6 2.4058Z" stroke="white" stroke-width="2"/>
<path d="M9.17395 17.192C9.17395 17.192 11.3997 28.7826 11.7997 28.7826" stroke="white" stroke-width="2"/>
<path d="M11.6 28.7827C11.8 28.7827 18 23.9131 18 23.9131" stroke="white" stroke-width="2"/>
<path d="M14.2007 20.6662L12.2083 27.5439" stroke="white" stroke-width="2"/>
</svg>
